<mxfile host="app.diagrams.net" agent="Mozilla/5.0 (Windows NT 10.0; Win64; x64) AppleWebKit/537.36 (KHTML, like Gecko) Chrome/136.0.0.0 Safari/537.36" version="26.2.12">
  <diagram name="Page-1" id="r7oWwOWjcuW8YJdOveNo">
    <mxGraphModel dx="2333" dy="2131" grid="1" gridSize="10" guides="1" tooltips="1" connect="1" arrows="1" fold="1" page="1" pageScale="1" pageWidth="850" pageHeight="1100" math="0" shadow="0">
      <root>
        <mxCell id="0" />
        <mxCell id="1" parent="0" />
        <mxCell id="2C5nNvQ8viQF7ojpFu6S-54" value="Job: Docker compose and deploy" style="sketch=0;outlineConnect=0;gradientColor=none;html=1;whiteSpace=wrap;fontSize=12;fontStyle=0;shape=mxgraph.aws4.group;grIcon=mxgraph.aws4.group_aws_step_functions_workflow;strokeColor=#545B64;fillColor=none;verticalAlign=top;align=left;spacingLeft=30;fontColor=#545B64;dashed=0;" vertex="1" parent="1">
          <mxGeometry x="270" y="420" width="730" height="188.8" as="geometry" />
        </mxCell>
        <mxCell id="2C5nNvQ8viQF7ojpFu6S-24" value="Job: Build Docker and Test" style="sketch=0;outlineConnect=0;gradientColor=none;html=1;whiteSpace=wrap;fontSize=12;fontStyle=0;shape=mxgraph.aws4.group;grIcon=mxgraph.aws4.group_aws_step_functions_workflow;strokeColor=#545B64;fillColor=none;verticalAlign=top;align=left;spacingLeft=30;fontColor=#545B64;dashed=0;" vertex="1" parent="1">
          <mxGeometry x="270" y="220" width="620" height="188.8" as="geometry" />
        </mxCell>
        <mxCell id="d9oN5cYtK4lwObDZOgTg-21" value="Job : Build and Test (Local)" style="sketch=0;outlineConnect=0;gradientColor=none;html=1;whiteSpace=wrap;fontSize=12;fontStyle=0;shape=mxgraph.aws4.group;grIcon=mxgraph.aws4.group_aws_step_functions_workflow;strokeColor=#545B64;fillColor=none;verticalAlign=top;align=left;spacingLeft=30;fontColor=#545B64;dashed=0;" vertex="1" parent="1">
          <mxGeometry x="270" y="20" width="530" height="188.8" as="geometry" />
        </mxCell>
        <mxCell id="2C5nNvQ8viQF7ojpFu6S-25" value="" style="edgeStyle=orthogonalEdgeStyle;rounded=0;orthogonalLoop=1;jettySize=auto;html=1;" edge="1" parent="1" source="d9oN5cYtK4lwObDZOgTg-1" target="2C5nNvQ8viQF7ojpFu6S-1">
          <mxGeometry relative="1" as="geometry">
            <mxPoint x="260" y="310" as="targetPoint" />
            <Array as="points">
              <mxPoint x="261" y="415" />
              <mxPoint x="261" y="310" />
            </Array>
          </mxGeometry>
        </mxCell>
        <mxCell id="2C5nNvQ8viQF7ojpFu6S-59" style="edgeStyle=orthogonalEdgeStyle;rounded=0;orthogonalLoop=1;jettySize=auto;html=1;exitX=0.5;exitY=1;exitDx=0;exitDy=0;exitPerimeter=0;entryX=0.5;entryY=1;entryDx=0;entryDy=0;entryPerimeter=0;" edge="1" parent="1" source="2C5nNvQ8viQF7ojpFu6S-63" target="2C5nNvQ8viQF7ojpFu6S-51">
          <mxGeometry relative="1" as="geometry">
            <mxPoint x="930" y="790" as="targetPoint" />
            <Array as="points">
              <mxPoint x="930" y="690" />
            </Array>
          </mxGeometry>
        </mxCell>
        <mxCell id="d9oN5cYtK4lwObDZOgTg-1" value="" style="verticalLabelPosition=bottom;html=1;verticalAlign=top;align=center;strokeColor=none;fillColor=#00BEF2;shape=mxgraph.azure.git_repository;" vertex="1" parent="1">
          <mxGeometry x="145" y="390" width="50" height="50" as="geometry" />
        </mxCell>
        <mxCell id="d9oN5cYtK4lwObDZOgTg-3" value="" style="endArrow=classic;html=1;rounded=0;exitX=0.19;exitY=1.004;exitDx=0;exitDy=0;exitPerimeter=0;entryX=0;entryY=0.5;entryDx=0;entryDy=0;entryPerimeter=0;" edge="1" parent="1" target="d9oN5cYtK4lwObDZOgTg-1">
          <mxGeometry width="50" height="50" relative="1" as="geometry">
            <mxPoint x="39.347999999999956" y="385.8427999999999" as="sourcePoint" />
            <mxPoint x="500" y="450" as="targetPoint" />
            <Array as="points">
              <mxPoint x="40" y="415" />
            </Array>
          </mxGeometry>
        </mxCell>
        <mxCell id="d9oN5cYtK4lwObDZOgTg-4" value="push into repo" style="text;html=1;align=center;verticalAlign=middle;whiteSpace=wrap;rounded=0;" vertex="1" parent="1">
          <mxGeometry x="40" y="390" width="100" height="30" as="geometry" />
        </mxCell>
        <mxCell id="d9oN5cYtK4lwObDZOgTg-5" value="client" style="text;html=1;align=center;verticalAlign=middle;whiteSpace=wrap;rounded=0;" vertex="1" parent="1">
          <mxGeometry x="14" y="310" width="60" height="30" as="geometry" />
        </mxCell>
        <mxCell id="d9oN5cYtK4lwObDZOgTg-6" value="" style="image;aspect=fixed;perimeter=ellipsePerimeter;html=1;align=center;shadow=0;dashed=0;spacingTop=3;image=img/lib/active_directory/vista_client.svg;" vertex="1" parent="1">
          <mxGeometry x="25" y="340" width="38" height="50" as="geometry" />
        </mxCell>
        <mxCell id="d9oN5cYtK4lwObDZOgTg-7" value="Workflow trigger" style="text;html=1;align=center;verticalAlign=middle;whiteSpace=wrap;rounded=0;" vertex="1" parent="1">
          <mxGeometry x="145" y="360" width="60" height="30" as="geometry" />
        </mxCell>
        <mxCell id="d9oN5cYtK4lwObDZOgTg-8" value="" style="shadow=0;dashed=0;html=1;strokeColor=none;fillColor=#4495D1;labelPosition=center;verticalLabelPosition=bottom;verticalAlign=top;align=center;outlineConnect=0;shape=mxgraph.veeam.checked_doc;" vertex="1" parent="1">
          <mxGeometry x="385" y="109.99999999999997" width="50.8" height="61.6" as="geometry" />
        </mxCell>
        <mxCell id="d9oN5cYtK4lwObDZOgTg-9" value="" style="endArrow=classic;html=1;rounded=0;exitX=1;exitY=0.5;exitDx=0;exitDy=0;exitPerimeter=0;" edge="1" parent="1" source="d9oN5cYtK4lwObDZOgTg-1" target="d9oN5cYtK4lwObDZOgTg-8">
          <mxGeometry width="50" height="50" relative="1" as="geometry">
            <mxPoint x="450" y="500" as="sourcePoint" />
            <mxPoint x="320" y="141" as="targetPoint" />
            <Array as="points">
              <mxPoint x="230" y="415" />
              <mxPoint x="230" y="330" />
              <mxPoint x="230" y="141" />
            </Array>
          </mxGeometry>
        </mxCell>
        <mxCell id="d9oN5cYtK4lwObDZOgTg-11" value="Checkout" style="text;html=1;align=center;verticalAlign=middle;whiteSpace=wrap;rounded=0;" vertex="1" parent="1">
          <mxGeometry x="370" y="69.99999999999997" width="60" height="30" as="geometry" />
        </mxCell>
        <mxCell id="d9oN5cYtK4lwObDZOgTg-12" value="" style="outlineConnect=0;dashed=0;verticalLabelPosition=bottom;verticalAlign=top;align=center;html=1;shape=mxgraph.aws3.android;fillColor=#FFD44F;gradientColor=none;" vertex="1" parent="1">
          <mxGeometry x="480" y="109.60000000000002" width="52" height="62" as="geometry" />
        </mxCell>
        <mxCell id="d9oN5cYtK4lwObDZOgTg-13" value="Install python &amp;amp; dependencies" style="text;html=1;align=center;verticalAlign=middle;whiteSpace=wrap;rounded=0;" vertex="1" parent="1">
          <mxGeometry x="472" y="70" width="60" height="30" as="geometry" />
        </mxCell>
        <mxCell id="d9oN5cYtK4lwObDZOgTg-14" value="" style="outlineConnect=0;dashed=0;verticalLabelPosition=bottom;verticalAlign=top;align=center;html=1;shape=mxgraph.aws3.mysql_db_instance_2;fillColor=#2E73B8;gradientColor=none;" vertex="1" parent="1">
          <mxGeometry x="580" y="115.6" width="50" height="50" as="geometry" />
        </mxCell>
        <mxCell id="d9oN5cYtK4lwObDZOgTg-15" value="Launch MySQL container" style="text;html=1;align=center;verticalAlign=middle;whiteSpace=wrap;rounded=0;" vertex="1" parent="1">
          <mxGeometry x="575" y="70" width="60" height="30" as="geometry" />
        </mxCell>
        <mxCell id="d9oN5cYtK4lwObDZOgTg-16" value="" style="outlineConnect=0;dashed=0;verticalLabelPosition=bottom;verticalAlign=top;align=center;html=1;shape=mxgraph.aws3.http_protocol;fillColor=#5294CF;gradientColor=none;" vertex="1" parent="1">
          <mxGeometry x="680" y="115.6" width="60" height="55.6" as="geometry" />
        </mxCell>
        <mxCell id="d9oN5cYtK4lwObDZOgTg-17" value="Test http connection" style="text;html=1;align=center;verticalAlign=middle;whiteSpace=wrap;rounded=0;" vertex="1" parent="1">
          <mxGeometry x="680" y="70" width="60" height="30" as="geometry" />
        </mxCell>
        <mxCell id="d9oN5cYtK4lwObDZOgTg-18" value="" style="endArrow=classic;html=1;rounded=0;entryX=0;entryY=0.5;entryDx=0;entryDy=0;entryPerimeter=0;" edge="1" parent="1" source="d9oN5cYtK4lwObDZOgTg-8" target="d9oN5cYtK4lwObDZOgTg-12">
          <mxGeometry width="50" height="50" relative="1" as="geometry">
            <mxPoint x="440" y="280" as="sourcePoint" />
            <mxPoint x="635.8" y="299.09000000000003" as="targetPoint" />
          </mxGeometry>
        </mxCell>
        <mxCell id="d9oN5cYtK4lwObDZOgTg-19" value="" style="endArrow=classic;html=1;rounded=0;entryX=0;entryY=0.5;entryDx=0;entryDy=0;entryPerimeter=0;" edge="1" parent="1">
          <mxGeometry width="50" height="50" relative="1" as="geometry">
            <mxPoint x="540.2" y="140.4000000000001" as="sourcePoint" />
            <mxPoint x="584.2" y="140.4000000000001" as="targetPoint" />
          </mxGeometry>
        </mxCell>
        <mxCell id="d9oN5cYtK4lwObDZOgTg-20" value="" style="endArrow=classic;html=1;rounded=0;entryX=0;entryY=0.5;entryDx=0;entryDy=0;entryPerimeter=0;" edge="1" parent="1">
          <mxGeometry width="50" height="50" relative="1" as="geometry">
            <mxPoint x="640.2" y="140.4000000000001" as="sourcePoint" />
            <mxPoint x="684.2" y="140.4000000000001" as="targetPoint" />
          </mxGeometry>
        </mxCell>
        <mxCell id="2C5nNvQ8viQF7ojpFu6S-1" value="" style="shadow=0;dashed=0;html=1;strokeColor=none;fillColor=#4495D1;labelPosition=center;verticalLabelPosition=bottom;verticalAlign=top;align=center;outlineConnect=0;shape=mxgraph.veeam.checked_doc;" vertex="1" parent="1">
          <mxGeometry x="385" y="280" width="50.8" height="61.6" as="geometry" />
        </mxCell>
        <mxCell id="2C5nNvQ8viQF7ojpFu6S-2" value="Checkout" style="text;html=1;align=center;verticalAlign=middle;whiteSpace=wrap;rounded=0;" vertex="1" parent="1">
          <mxGeometry x="370" y="239.99999999999997" width="60" height="30" as="geometry" />
        </mxCell>
        <mxCell id="2C5nNvQ8viQF7ojpFu6S-3" value="" style="outlineConnect=0;dashed=0;verticalLabelPosition=bottom;verticalAlign=top;align=center;html=1;shape=mxgraph.aws3.mysql_db_instance_2;fillColor=#2E73B8;gradientColor=none;" vertex="1" parent="1">
          <mxGeometry x="580" y="285.6" width="50" height="50" as="geometry" />
        </mxCell>
        <mxCell id="2C5nNvQ8viQF7ojpFu6S-4" value="Launch MySQL container" style="text;html=1;align=center;verticalAlign=middle;whiteSpace=wrap;rounded=0;" vertex="1" parent="1">
          <mxGeometry x="575" y="240" width="60" height="30" as="geometry" />
        </mxCell>
        <mxCell id="2C5nNvQ8viQF7ojpFu6S-5" value="" style="image;sketch=0;aspect=fixed;html=1;points=[];align=center;fontSize=12;image=img/lib/mscae/Docker.svg;" vertex="1" parent="1">
          <mxGeometry x="482" y="286" width="50" height="41" as="geometry" />
        </mxCell>
        <mxCell id="2C5nNvQ8viQF7ojpFu6S-6" value="Build from Docker file" style="text;html=1;align=center;verticalAlign=middle;whiteSpace=wrap;rounded=0;" vertex="1" parent="1">
          <mxGeometry x="477" y="240" width="60" height="30" as="geometry" />
        </mxCell>
        <mxCell id="2C5nNvQ8viQF7ojpFu6S-7" value="" style="outlineConnect=0;dashed=0;verticalLabelPosition=bottom;verticalAlign=top;align=center;html=1;shape=mxgraph.aws3.http_protocol;fillColor=#5294CF;gradientColor=none;" vertex="1" parent="1">
          <mxGeometry x="780" y="283" width="60" height="55.6" as="geometry" />
        </mxCell>
        <mxCell id="2C5nNvQ8viQF7ojpFu6S-8" value="Test http connection" style="text;html=1;align=center;verticalAlign=middle;whiteSpace=wrap;rounded=0;" vertex="1" parent="1">
          <mxGeometry x="780" y="234.4" width="60" height="30" as="geometry" />
        </mxCell>
        <mxCell id="2C5nNvQ8viQF7ojpFu6S-10" value="&amp;lt;/&amp;gt;" style="rounded=1;arcSize=5;fillColor=#0065FF;strokeColor=none;fontColor=#ffffff;align=center;verticalAlign=middle;whiteSpace=wrap;fontSize=14;fontStyle=1;html=1;sketch=0;" vertex="1" parent="1">
          <mxGeometry x="690" y="286" width="40" height="41" as="geometry" />
        </mxCell>
        <mxCell id="2C5nNvQ8viQF7ojpFu6S-11" value="" style="endArrow=classic;html=1;rounded=0;entryX=0;entryY=0.5;entryDx=0;entryDy=0;entryPerimeter=0;" edge="1" parent="1">
          <mxGeometry width="50" height="50" relative="1" as="geometry">
            <mxPoint x="435.80000000000007" y="310.3800000000001" as="sourcePoint" />
            <mxPoint x="479.80000000000007" y="310.3800000000001" as="targetPoint" />
          </mxGeometry>
        </mxCell>
        <mxCell id="2C5nNvQ8viQF7ojpFu6S-12" value="" style="endArrow=classic;html=1;rounded=0;entryX=0;entryY=0.5;entryDx=0;entryDy=0;entryPerimeter=0;" edge="1" parent="1">
          <mxGeometry width="50" height="50" relative="1" as="geometry">
            <mxPoint x="540.2" y="310.4000000000001" as="sourcePoint" />
            <mxPoint x="584.2" y="310.4000000000001" as="targetPoint" />
          </mxGeometry>
        </mxCell>
        <mxCell id="2C5nNvQ8viQF7ojpFu6S-13" value="" style="endArrow=classic;html=1;rounded=0;entryX=0;entryY=0.5;entryDx=0;entryDy=0;entryPerimeter=0;" edge="1" parent="1">
          <mxGeometry width="50" height="50" relative="1" as="geometry">
            <mxPoint x="640.2" y="310.4000000000001" as="sourcePoint" />
            <mxPoint x="684.2" y="310.4000000000001" as="targetPoint" />
          </mxGeometry>
        </mxCell>
        <mxCell id="2C5nNvQ8viQF7ojpFu6S-14" value="" style="endArrow=classic;html=1;rounded=0;entryX=0;entryY=0.5;entryDx=0;entryDy=0;entryPerimeter=0;" edge="1" parent="1" target="2C5nNvQ8viQF7ojpFu6S-7">
          <mxGeometry width="50" height="50" relative="1" as="geometry">
            <mxPoint x="730.2" y="310.4000000000001" as="sourcePoint" />
            <mxPoint x="774.2" y="310.4000000000001" as="targetPoint" />
          </mxGeometry>
        </mxCell>
        <mxCell id="2C5nNvQ8viQF7ojpFu6S-43" style="edgeStyle=orthogonalEdgeStyle;rounded=0;orthogonalLoop=1;jettySize=auto;html=1;" edge="1" parent="1" source="2C5nNvQ8viQF7ojpFu6S-29">
          <mxGeometry relative="1" as="geometry">
            <mxPoint x="460" y="540.8000000000001" as="targetPoint" />
          </mxGeometry>
        </mxCell>
        <mxCell id="2C5nNvQ8viQF7ojpFu6S-29" value="" style="shadow=0;dashed=0;html=1;strokeColor=none;fillColor=#4495D1;labelPosition=center;verticalLabelPosition=bottom;verticalAlign=top;align=center;outlineConnect=0;shape=mxgraph.veeam.checked_doc;" vertex="1" parent="1">
          <mxGeometry x="385" y="510" width="50.8" height="61.6" as="geometry" />
        </mxCell>
        <mxCell id="2C5nNvQ8viQF7ojpFu6S-30" value="Checkout" style="text;html=1;align=center;verticalAlign=middle;whiteSpace=wrap;rounded=0;" vertex="1" parent="1">
          <mxGeometry x="370" y="470" width="60" height="30" as="geometry" />
        </mxCell>
        <mxCell id="2C5nNvQ8viQF7ojpFu6S-31" value="" style="shape=image;html=1;verticalAlign=top;verticalLabelPosition=bottom;labelBackgroundColor=#ffffff;imageAspect=0;aspect=fixed;image=https://cdn2.iconfinder.com/data/icons/boxicons-logos/24/bxl-docker-128.png" vertex="1" parent="1">
          <mxGeometry x="467" y="500" width="78" height="78" as="geometry" />
        </mxCell>
        <mxCell id="2C5nNvQ8viQF7ojpFu6S-32" value="Docker compose build" style="text;html=1;align=center;verticalAlign=middle;whiteSpace=wrap;rounded=0;" vertex="1" parent="1">
          <mxGeometry x="467" y="470" width="60" height="30" as="geometry" />
        </mxCell>
        <mxCell id="2C5nNvQ8viQF7ojpFu6S-37" style="edgeStyle=orthogonalEdgeStyle;rounded=0;orthogonalLoop=1;jettySize=auto;html=1;exitX=1;exitY=0.5;exitDx=0;exitDy=0;exitPerimeter=0;" edge="1" parent="1" source="d9oN5cYtK4lwObDZOgTg-1" target="2C5nNvQ8viQF7ojpFu6S-29">
          <mxGeometry relative="1" as="geometry">
            <mxPoint x="230" y="519" as="targetPoint" />
            <Array as="points">
              <mxPoint x="231" y="415" />
              <mxPoint x="231" y="540" />
            </Array>
          </mxGeometry>
        </mxCell>
        <mxCell id="2C5nNvQ8viQF7ojpFu6S-39" value="launch Flask container" style="text;html=1;align=center;verticalAlign=middle;whiteSpace=wrap;rounded=0;" vertex="1" parent="1">
          <mxGeometry x="680" y="240" width="60" height="30" as="geometry" />
        </mxCell>
        <mxCell id="2C5nNvQ8viQF7ojpFu6S-47" style="edgeStyle=orthogonalEdgeStyle;rounded=0;orthogonalLoop=1;jettySize=auto;html=1;" edge="1" parent="1" source="2C5nNvQ8viQF7ojpFu6S-40" target="2C5nNvQ8viQF7ojpFu6S-45">
          <mxGeometry relative="1" as="geometry" />
        </mxCell>
        <mxCell id="2C5nNvQ8viQF7ojpFu6S-40" value="" style="outlineConnect=0;dashed=0;verticalLabelPosition=bottom;verticalAlign=top;align=center;html=1;shape=mxgraph.aws3.http_protocol;fillColor=#5294CF;gradientColor=none;" vertex="1" parent="1">
          <mxGeometry x="580" y="511.20000000000005" width="60" height="55.6" as="geometry" />
        </mxCell>
        <mxCell id="2C5nNvQ8viQF7ojpFu6S-41" value="Test http connection" style="text;html=1;align=center;verticalAlign=middle;whiteSpace=wrap;rounded=0;" vertex="1" parent="1">
          <mxGeometry x="580" y="470" width="60" height="30" as="geometry" />
        </mxCell>
        <mxCell id="2C5nNvQ8viQF7ojpFu6S-44" style="edgeStyle=orthogonalEdgeStyle;rounded=0;orthogonalLoop=1;jettySize=auto;html=1;entryX=0;entryY=0.5;entryDx=0;entryDy=0;entryPerimeter=0;" edge="1" parent="1" source="2C5nNvQ8viQF7ojpFu6S-31" target="2C5nNvQ8viQF7ojpFu6S-40">
          <mxGeometry relative="1" as="geometry" />
        </mxCell>
        <mxCell id="2C5nNvQ8viQF7ojpFu6S-50" style="edgeStyle=orthogonalEdgeStyle;rounded=0;orthogonalLoop=1;jettySize=auto;html=1;" edge="1" parent="1" source="2C5nNvQ8viQF7ojpFu6S-45" target="2C5nNvQ8viQF7ojpFu6S-48">
          <mxGeometry relative="1" as="geometry" />
        </mxCell>
        <mxCell id="2C5nNvQ8viQF7ojpFu6S-45" value="" style="outlineConnect=0;dashed=0;verticalLabelPosition=bottom;verticalAlign=top;align=center;html=1;shape=mxgraph.aws3.long_term_security_credential;fillColor=#ffffff;gradientColor=none;" vertex="1" parent="1">
          <mxGeometry x="680" y="515" width="60" height="48" as="geometry" />
        </mxCell>
        <mxCell id="2C5nNvQ8viQF7ojpFu6S-46" value="Configure AWS creds" style="text;html=1;align=center;verticalAlign=middle;whiteSpace=wrap;rounded=0;" vertex="1" parent="1">
          <mxGeometry x="680" y="470" width="60" height="30" as="geometry" />
        </mxCell>
        <mxCell id="2C5nNvQ8viQF7ojpFu6S-53" style="edgeStyle=orthogonalEdgeStyle;rounded=0;orthogonalLoop=1;jettySize=auto;html=1;" edge="1" parent="1" source="2C5nNvQ8viQF7ojpFu6S-48" target="2C5nNvQ8viQF7ojpFu6S-51">
          <mxGeometry relative="1" as="geometry" />
        </mxCell>
        <mxCell id="2C5nNvQ8viQF7ojpFu6S-48" value="" style="outlineConnect=0;dashed=0;verticalLabelPosition=bottom;verticalAlign=top;align=center;html=1;shape=mxgraph.aws3.ecr;fillColor=#F58534;gradientColor=none;" vertex="1" parent="1">
          <mxGeometry x="780" y="503" width="69" height="72" as="geometry" />
        </mxCell>
        <mxCell id="2C5nNvQ8viQF7ojpFu6S-49" value="Push to ECR&lt;div&gt;&lt;br&gt;&lt;/div&gt;" style="text;html=1;align=center;verticalAlign=middle;whiteSpace=wrap;rounded=0;" vertex="1" parent="1">
          <mxGeometry x="785" y="470" width="60" height="30" as="geometry" />
        </mxCell>
        <mxCell id="2C5nNvQ8viQF7ojpFu6S-51" value="" style="outlineConnect=0;dashed=0;verticalLabelPosition=bottom;verticalAlign=top;align=center;html=1;shape=mxgraph.aws3.ec2_compute_container_2;fillColor=#F58534;gradientColor=none;" vertex="1" parent="1">
          <mxGeometry x="900" y="521.75" width="60" height="34.5" as="geometry" />
        </mxCell>
        <mxCell id="2C5nNvQ8viQF7ojpFu6S-52" value="Deploy to ec2" style="text;html=1;align=center;verticalAlign=middle;whiteSpace=wrap;rounded=0;" vertex="1" parent="1">
          <mxGeometry x="900" y="470" width="60" height="28" as="geometry" />
        </mxCell>
        <mxCell id="2C5nNvQ8viQF7ojpFu6S-60" value="Pull code from git repo" style="text;html=1;align=center;verticalAlign=middle;whiteSpace=wrap;rounded=0;" vertex="1" parent="1">
          <mxGeometry x="445" y="625" width="180" height="40" as="geometry" />
        </mxCell>
        <mxCell id="2C5nNvQ8viQF7ojpFu6S-62" value="" style="edgeStyle=orthogonalEdgeStyle;rounded=0;orthogonalLoop=1;jettySize=auto;html=1;exitX=0.5;exitY=1;exitDx=0;exitDy=0;exitPerimeter=0;entryX=0.5;entryY=1;entryDx=0;entryDy=0;entryPerimeter=0;" edge="1" parent="1" source="d9oN5cYtK4lwObDZOgTg-1" target="2C5nNvQ8viQF7ojpFu6S-63">
          <mxGeometry relative="1" as="geometry">
            <mxPoint x="930" y="556" as="targetPoint" />
            <mxPoint x="170" y="440" as="sourcePoint" />
            <Array as="points">
              <mxPoint x="170" y="690" />
            </Array>
          </mxGeometry>
        </mxCell>
        <mxCell id="2C5nNvQ8viQF7ojpFu6S-63" value="" style="verticalLabelPosition=bottom;html=1;verticalAlign=top;align=center;strokeColor=none;fillColor=#00BEF2;shape=mxgraph.azure.github_code;pointerEvents=1;" vertex="1" parent="1">
          <mxGeometry x="510" y="665" width="50" height="50" as="geometry" />
        </mxCell>
        <mxCell id="2C5nNvQ8viQF7ojpFu6S-69" style="edgeStyle=orthogonalEdgeStyle;rounded=0;orthogonalLoop=1;jettySize=auto;html=1;exitX=0;exitY=0.5;exitDx=0;exitDy=0;exitPerimeter=0;" edge="1" parent="1" source="2C5nNvQ8viQF7ojpFu6S-64" target="2C5nNvQ8viQF7ojpFu6S-51">
          <mxGeometry relative="1" as="geometry" />
        </mxCell>
        <mxCell id="2C5nNvQ8viQF7ojpFu6S-64" value="" style="outlineConnect=0;dashed=0;verticalLabelPosition=bottom;verticalAlign=top;align=center;html=1;shape=mxgraph.aws3.emr_engine;fillColor=#F58534;gradientColor=none;" vertex="1" parent="1">
          <mxGeometry x="1130" y="509.8" width="70" height="57" as="geometry" />
        </mxCell>
        <mxCell id="2C5nNvQ8viQF7ojpFu6S-68" style="edgeStyle=orthogonalEdgeStyle;rounded=0;orthogonalLoop=1;jettySize=auto;html=1;exitX=0;exitY=0.5;exitDx=0;exitDy=0;" edge="1" parent="1" source="2C5nNvQ8viQF7ojpFu6S-65" target="2C5nNvQ8viQF7ojpFu6S-64">
          <mxGeometry relative="1" as="geometry" />
        </mxCell>
        <mxCell id="2C5nNvQ8viQF7ojpFu6S-65" value="" style="image;aspect=fixed;perimeter=ellipsePerimeter;html=1;align=center;shadow=0;dashed=0;spacingTop=3;image=img/lib/active_directory/internet_cloud.svg;" vertex="1" parent="1">
          <mxGeometry x="1310" y="509.8" width="89.68" height="56.5" as="geometry" />
        </mxCell>
        <mxCell id="2C5nNvQ8viQF7ojpFu6S-66" value="Internet" style="text;html=1;align=center;verticalAlign=middle;whiteSpace=wrap;rounded=0;" vertex="1" parent="1">
          <mxGeometry x="1310" y="460.3" width="75" height="39" as="geometry" />
        </mxCell>
        <mxCell id="2C5nNvQ8viQF7ojpFu6S-67" value="Nginx" style="text;html=1;align=center;verticalAlign=middle;whiteSpace=wrap;rounded=0;" vertex="1" parent="1">
          <mxGeometry x="1135" y="469.3" width="60" height="30" as="geometry" />
        </mxCell>
        <mxCell id="2C5nNvQ8viQF7ojpFu6S-71" style="edgeStyle=orthogonalEdgeStyle;rounded=0;orthogonalLoop=1;jettySize=auto;html=1;exitX=0.5;exitY=1;exitDx=0;exitDy=0;entryX=0.5;entryY=1;entryDx=0;entryDy=0;entryPerimeter=0;" edge="1" parent="1" source="2C5nNvQ8viQF7ojpFu6S-31" target="2C5nNvQ8viQF7ojpFu6S-64">
          <mxGeometry relative="1" as="geometry" />
        </mxCell>
        <mxCell id="2C5nNvQ8viQF7ojpFu6S-72" value="Workflow" style="sketch=0;outlineConnect=0;gradientColor=none;html=1;whiteSpace=wrap;fontSize=12;fontStyle=0;shape=mxgraph.aws4.group;grIcon=mxgraph.aws4.group_aws_step_functions_workflow;strokeColor=#545B64;fillColor=none;verticalAlign=top;align=left;spacingLeft=30;fontColor=#545B64;dashed=0;" vertex="1" parent="1">
          <mxGeometry x="220" y="-110" width="1030" height="880" as="geometry" />
        </mxCell>
      </root>
    </mxGraphModel>
  </diagram>
</mxfile>
